<svg xmlns="http://www.w3.org/2000/svg" width="18" height="18" fill="none" viewBox="0 0 18 18">
  <path fill="#8C90A1" d="M6.804 15.402c-.124-.164-.002-.402.203-.402h3.985c.205 0 .327.238.203.402A2.756 2.756 0 0 1 9 16.5a2.756 2.756 0 0 1-2.195-1.098ZM15 7.182v1.942c0 .838.359 1.637.985 2.194a1.53 1.53 0 0 1 .352 1.84c-.252.511-.806.842-1.412.842H3.076c-.606 0-1.16-.33-1.412-.842a1.531 1.531 0 0 1 .352-1.841 2.935 2.935 0 0 0 .985-2.193V6.999c0-1.623.638-3.143 1.796-4.281a5.946 5.946 0 0 1 4.315-1.717C12.358 1.061 15 3.834 15 7.182Zm-1 1.942V7.182c0-2.807-2.201-5.131-4.906-5.181a4.965 4.965 0 0 0-3.597 1.431A4.963 4.963 0 0 0 4 7v2.124a3.936 3.936 0 0 1-1.32 2.941.54.54 0 0 0-.12.651c.083.17.291.284.515.284h11.849c.225 0 .431-.114.515-.284a.54.54 0 0 0-.12-.651A3.938 3.938 0 0 1 14 9.125Z"/>
</svg>
