<svg xmlns="http://www.w3.org/2000/svg" width="18" height="18" fill="none" viewBox="0 0 18 18">
  <path fill="#8C90A1" d="M15.188 3.375H2.812A1.125 1.125 0 0 0 1.687 4.5v11.25a1.114 1.114 0 0 0 .65 1.02 1.117 1.117 0 0 0 1.196-.16l.007-.006 2.296-1.979h9.351a1.125 1.125 0 0 0 1.126-1.125v-9a1.125 1.125 0 0 0-1.125-1.125Zm0 10.125H5.624a.563.563 0 0 0-.368.137L2.812 15.75V4.5h12.375v9Zm-9-5.625a.563.563 0 0 1 .562-.563h4.5a.562.562 0 1 1 0 1.125h-4.5a.563.563 0 0 1-.563-.562Zm0 2.25a.563.563 0 0 1 .562-.563h4.5a.562.562 0 1 1 0 1.126h-4.5a.563.563 0 0 1-.563-.563Z"/>
</svg>
