<svg xmlns="http://www.w3.org/2000/svg" width="18" height="18" fill="none" viewBox="0 0 18 18">
  <g clip-path="url(#a)">
    <path stroke="#8C90A1" d="M9 1.063A7.926 7.926 0 0 1 16.938 9 7.926 7.926 0 0 1 9 16.938 7.926 7.926 0 0 1 1.062 9 7.926 7.926 0 0 1 9 1.062Z"/>
    <path fill="#8C90A1" d="M7.537 12.431a.51.51 0 0 1-.393-.168L4.95 10.069a.544.544 0 0 1 0-.788.544.544 0 0 1 .787 0l1.744 1.744 4.556-4.556a.544.544 0 0 1 .788 0 .544.544 0 0 1 0 .787l-5.006 5.006c0 .113-.113.17-.282.17Z"/>
  </g>
  <defs>
    <clipPath id="a">
      <path fill="#fff" d="M0 0h18v18H0z"/>
    </clipPath>
  </defs>
</svg>
