<svg xmlns="http://www.w3.org/2000/svg" width="18" height="18" fill="none" viewBox="0 0 18 18">
  <path fill="#8C90A1" d="M5.625 4.5a.563.563 0 0 1 .563-.563h9a.562.562 0 1 1 0 1.126h-9a.563.563 0 0 1-.563-.563Zm9.563 3.938h-9a.563.563 0 1 0 0 1.124h9a.562.562 0 1 0 0-1.124Zm0 4.5h-9a.563.563 0 0 0 0 1.124h9a.562.562 0 1 0 0-1.124ZM3.094 3.655a.844.844 0 1 0 0 1.688.844.844 0 0 0 0-1.688Zm0 4.5a.844.844 0 1 0 0 1.688.844.844 0 0 0 0-1.688Zm0 4.5a.844.844 0 1 0 0 1.688.844.844 0 0 0 0-1.688Z"/>
</svg>
